HIERARCHY
ROOT Hips
{
	OFFSET 0.00000 0.00000 0.00000
	CHANNELS 6 Xposition Yposition Zposition Zrotation Yrotation Xrotation 
	JOINT LHipJoint
	{
		OFFSET 0 0 0
		CHANNELS 3 Zrotation Yrotation Xrotation
		JOINT LeftHip
		{
			OFFSET 1.75344 -1.53157 0.77399
			CHANNELS 3 Zrotation Yrotation Xrotation
			JOINT LeftKnee
			{
				OFFSET 2.25415 -6.19323 0.00000
				CHANNELS 3 Zrotation Yrotation Xrotation
				JOINT LeftAnkle
				{
					OFFSET 2.30342 -6.32861 0.00000
					CHANNELS 3 Zrotation Yrotation Xrotation
					JOINT LeftToe
					{
						OFFSET 0.10958 -0.30108 1.49206
						CHANNELS 3 Zrotation Yrotation Xrotation
						End Site
						{
							OFFSET 0.00000 -0.00000 0.77783
						}
					}
				}
			}
		}
	}
	JOINT RHipJoint
	{
		OFFSET 0 0 0
		CHANNELS 3 Zrotation Yrotation Xrotation
		JOINT RightHip
		{
			OFFSET -1.81912 -1.53156 0.77399
			CHANNELS 3 Zrotation Yrotation Xrotation
			JOINT RightKnee
			{
				OFFSET -2.22882 -6.12365 0.00000
				CHANNELS 3 Zrotation Yrotation Xrotation
				JOINT RightAnkle
				{
					OFFSET -2.21943 -6.09785 0.00000
					CHANNELS 3 Zrotation Yrotation Xrotation
					JOINT RightToe
					{
						OFFSET -0.18931 -0.52012 1.59379
						CHANNELS 3 Zrotation Yrotation Xrotation
						End Site
						{
							OFFSET -0.00000 -0.00000 0.84686
						}
					}
				}
			}
		}
	}
	JOINT lowerback
	{
		OFFSET 0 0 0
		CHANNELS 3 Zrotation Yrotation Xrotation
		JOINT Chest
		{
			OFFSET -0.00200 1.66634 -0.14248
			CHANNELS 3 Zrotation Yrotation Xrotation
			JOINT Chest2
			{
				OFFSET -0.00875 1.64542 0.09514
				CHANNELS 3 Zrotation Yrotation Xrotation
				JOINT lowerneck
				{
					OFFSET 0 0 0
					CHANNELS 3 Zrotation Yrotation Xrotation
					JOINT Neck
					{
						OFFSET 0.02257 1.59605 0.00839
						CHANNELS 3 Zrotation Yrotation Xrotation
						JOINT Head
						{
							OFFSET -0.10214 1.57530 -0.23335
							CHANNELS 3 Zrotation Yrotation Xrotation
							End Site
							{
								OFFSET -0.03588 1.60717 -0.08062
							}
						}
					}
				}
				JOINT LeftCollar
				{
					OFFSET 0 0 0
					CHANNELS 3 Zrotation Yrotation Xrotation
					JOINT LeftShoulder
					{
						OFFSET 2.54983 1.10186 0.40078
CHANNELS 3 Zrotation Xrotation Yrotation
						JOINT LeftElbow
						{
OFFSET 0 -4.288400 0.000000
CHANNELS 3 Zrotation Xrotation Yrotation
							JOINT LeftWrist
							{
OFFSET 0 -3.065520 -0.000000
CHANNELS 3 Zrotation Xrotation Yrotation
								JOINT lhand
								{
									OFFSET 0 0 0
CHANNELS 3 Zrotation Xrotation Yrotation
									JOINT LFingers
									{
OFFSET 0 -0.753040 0.000000
CHANNELS 3 Zrotation Xrotation Yrotation
										End Site
										{
OFFSET 0 -0.607120 0.000000
										}
									}
								}
								JOINT LThumb
								{
OFFSET 0 0.000000 0.000000
CHANNELS 3 Zrotation Xrotation Yrotation
									End Site
									{
OFFSET 0 -0.616390 0.616390
									}
								}
							}
						}
					}
				}
				JOINT RightCollar
				{
					OFFSET 0 0 0
					CHANNELS 3 Zrotation Yrotation Xrotation
					JOINT RightShoulder
					{
						OFFSET -2.60909 1.35448 0.21802
CHANNELS 3 Zrotation Xrotation Yrotation
						JOINT RightElbow
						{
OFFSET 0 -4.521720 -0.000000
CHANNELS 3 Zrotation Xrotation Yrotation
							JOINT RightWrist
							{
OFFSET 0 -2.891400 0.000000
CHANNELS 3 Zrotation Xrotation Yrotation
								JOINT rhand
								{
									OFFSET 0 0 0
CHANNELS 3 Zrotation Xrotation Yrotation
									JOINT RFingers
									{
OFFSET 0 -0.680540 0.000000
CHANNELS 3 Zrotation Xrotation Yrotation
										End Site
										{
OFFSET 0 -0.548670 0.000000
										}
									}
								}
								JOINT RThumb
								{
OFFSET 0 0.000000 0.000000
CHANNELS 3 Zrotation Xrotation Yrotation
									End Site
									{
OFFSET 0 -0.557050 0.557050
									}
								}
							}
						}
					}
				}
			}
		}
	}
}
MOTION
Frames: 10
Frame Time: 0.008333333333333333
9.090100 15.133500 42.033200 -179.321000 -12.910800 -179.976000 0.000000 0.000000 0.000000 -24.749600 -25.851800 -1.904700 2.724700 10.235500 29.742600 1.835000 1.325600 -26.118900 2.110100 -9.091800 -26.082800 0.000000 0.000000 0.000000 29.627300 15.958100 1.184900 -1.959000 -8.780200 25.110100 -1.588600 -25.354400 -43.206800 -2.049000 -8.967500 25.693600 2.108800 2.604700 5.080300 0.252400 3.613800 -3.697100 -1.297100 1.664000 -6.589400 8.693200 16.807200 -1.815800 -4.099800 22.447300 9.805400 -1.252000 11.157000 4.671900 -0.000000 0.000000 0.000000 3.296800 10.016100 -34.904900 19.099500 -29.542200 5.079800 2.863800 16.191400 38.455500 0.000000 0.000000 0.000000 -7.125000 0.000000 0.000000 -16.468200 -7.131900 -19.147100 -0.000000 0.000000 0.000000 -5.553200 15.595800 48.461800 -17.627500 -27.677600 -4.374800 -11.096400 26.697500 54.620800 0.000000 0.000000 0.000000 7.125000 0.000000 -0.000000 73.403100 75.777400 -58.888200
9.096171 15.138654 42.030294 -179.189394 -12.819980 -179.940028 0.000000 0.000000 0.000000 -24.504204 -25.710862 -2.089040 2.738275 10.258818 29.818920 1.849215 1.105433 -26.135105 1.881577 -8.614310 -24.596580 0.000000 0.000000 0.000000 29.798841 16.067788 1.261104 -1.932574 -8.724200 24.936405 -1.509754 -25.657914 -43.190963 -1.992505 -8.850092 25.327701 2.165390 2.646233 4.956648 0.365744 3.675210 -3.650924 -1.208884 1.696476 -6.471215 8.342544 16.831988 -1.977458 -3.920775 22.470457 9.753728 -1.152797 11.164255 4.623272 0.000000 0.000000 0.000000 3.123301 9.968559 -35.607648 19.915916 -30.530114 5.493776 -0.257467 15.773284 34.019911 0.000000 0.000000 0.000000 -7.125000 0.000000 0.000000 -18.059436 -2.697396 -19.725127 0.000000 0.000000 0.000000 -5.672443 15.483793 48.435422 -17.579058 -27.614834 -4.352376 -11.203577 26.743209 54.385623 0.000000 0.000000 0.000000 7.125000 0.000000 0.000000 72.452747 75.771621 -57.983760
9.100340 15.137186 42.032617 -179.303788 -12.799060 -179.947057 0.000000 0.000000 0.000000 -24.721339 -25.998782 -1.828779 2.714996 10.218745 29.688136 1.851552 1.379465 -26.254781 1.765319 -8.359036 -23.810026 0.000000 0.000000 0.000000 29.667665 15.990140 1.200488 -1.945828 -8.752367 25.023634 -1.567628 -25.328026 -43.091687 -2.078834 -9.028302 25.883969 2.015367 2.638446 5.025727 0.382133 3.656738 -3.644908 -1.110239 1.694346 -6.515399 8.321181 16.813494 -1.820251 -4.035917 22.463272 9.441888 -1.212245 11.162690 4.511939 0.000000 0.000000 0.000000 3.065785 10.031939 -36.162563 20.475799 -31.210960 5.776129 -3.534172 16.221813 31.733411 0.000000 0.000000 0.000000 -7.125000 0.000000 0.000000 -19.700637 -0.235625 -21.059060 0.000000 0.000000 0.000000 -5.739527 15.485538 48.374972 -17.623576 -27.672447 -4.372981 -10.947009 26.485310 54.189866 0.000000 0.000000 0.000000 7.125000 0.000000 0.000000 71.768454 75.633936 -57.187059
9.105480 15.138761 42.032971 -179.326361 -12.819386 -179.880501 0.000000 0.000000 0.000000 -24.798335 -26.382449 -1.705534 2.705253 10.201918 29.633168 1.845597 1.768781 -26.365757 1.890697 -8.632992 -24.654906 0.000000 0.000000 0.000000 29.661779 15.977319 1.112501 -1.951506 -8.764250 25.060678 -1.476974 -25.496553 -42.884558 -2.062960 -8.995826 25.782278 2.077638 2.606911 5.064630 0.335538 3.617190 -3.714697 -1.193227 1.667899 -6.606311 8.220380 16.875589 -1.847677 -3.867769 22.533559 9.495004 -1.145304 11.200500 4.506301 0.000000 0.000000 0.000000 3.183395 10.097375 -35.281151 19.322560 -29.817516 5.190276 3.444213 15.720781 37.542444 0.000000 0.000000 0.000000 -7.125000 0.000000 0.000000 -16.120970 -6.320362 -18.508728 0.000000 0.000000 0.000000 -5.717497 15.393192 48.721339 -17.542373 -27.567242 -4.335394 -10.642377 26.106666 54.327248 0.000000 0.000000 0.000000 7.125000 0.000000 0.000000 72.390341 75.548812 -57.676916
9.108117 15.137151 42.037034 -179.307240 -12.857692 -179.843384 0.000000 0.000000 0.000000 -24.765388 -26.443177 -1.762159 2.715664 10.219962 29.691828 1.837731 2.003909 -26.406060 2.069207 -9.007964 -25.820734 0.000000 0.000000 0.000000 29.660937 16.095585 1.073708 -1.949612 -8.760358 25.048538 -1.557369 -25.476714 -43.201920 -2.121970 -9.115506 26.157479 2.233883 2.600165 5.142871 0.292270 3.620126 -3.767260 -1.331048 1.658432 -6.695009 8.251468 16.858399 -1.852918 -3.861564 22.507549 9.457333 -1.150636 11.189705 4.496593 0.000000 0.000000 0.000000 3.350621 10.332801 -37.226471 19.895995 -30.516795 5.478415 6.751549 13.536572 33.295956 0.000000 0.000000 0.000000 -7.125000 0.000000 0.000000 -14.133070 -2.612668 -15.224948 0.000000 0.000000 0.000000 -5.636181 15.430807 48.604663 -17.515711 -27.532706 -4.323100 -10.966556 26.601945 54.458676 0.000000 0.000000 0.000000 7.125000 0.000000 0.000000 72.804621 75.697358 -58.233058
9.110200 15.136428 42.035301 -179.328548 -12.780116 -179.831017 0.000000 0.000000 0.000000 -24.879531 -26.727624 -1.592729 2.709385 10.209057 29.656370 1.824139 2.454443 -26.499401 1.960960 -8.781557 -25.116162 0.000000 0.000000 0.000000 29.626054 15.986909 0.951511 -1.963328 -8.789271 25.138313 -1.300738 -25.765878 -42.419472 -1.939909 -8.739818 24.984809 2.301476 2.596776 5.185748 0.265951 3.620236 -3.810056 -1.399658 1.652476 -6.759462 8.285936 16.901126 -1.780070 -3.824628 22.564255 9.521373 -1.142920 11.220182 4.507831 0.000000 0.000000 0.000000 3.436251 10.303354 -37.448588 19.931518 -30.559765 5.496538 5.698838 13.737378 33.422401 0.000000 0.000000 0.000000 -7.125000 0.000000 0.000000 -14.715485 -2.612188 -15.894163 0.000000 0.000000 0.000000 -5.584804 15.521137 48.581246 -17.528291 -27.548964 -4.328845 -10.838759 26.686238 54.119411 0.000000 0.000000 0.000000 7.125000 0.000000 0.000000 71.531935 75.577545 -56.902703
9.112838 15.133606 42.035572 -179.358003 -12.677942 -179.812978 0.000000 0.000000 0.000000 -24.923148 -26.789875 -1.524843 2.702723 10.197474 29.618692 1.835782 2.437358 -26.572875 1.931706 -8.720523 -24.926072 0.000000 0.000000 0.000000 29.585136 16.027539 0.891794 -1.975036 -8.813924 25.215008 -1.255121 -25.877375 -42.343881 -1.995103 -8.855814 25.345506 2.371519 2.649417 5.221821 0.205974 3.693902 -3.851225 -1.511870 1.682147 -6.813055 8.366814 16.839061 -1.833686 -3.897694 22.480973 9.504479 -1.174135 11.177948 4.523532 0.000000 0.000000 0.000000 3.443429 10.359777 -37.523339 20.049802 -30.702286 5.556744 4.483866 13.951048 33.492976 0.000000 0.000000 0.000000 -7.125000 0.000000 0.000000 -15.379712 -2.546505 -16.648409 0.000000 0.000000 0.000000 -5.466459 15.525358 48.408825 -17.468230 -27.470774 -4.301106 -10.733162 26.291148 54.210049 0.000000 0.000000 0.000000 7.125000 0.000000 0.000000 71.916931 75.557935 -57.241724
9.117818 15.136002 42.026761 -179.379865 -12.442043 -179.869791 0.000000 0.000000 0.000000 -25.017461 -26.824915 -1.299007 2.697556 10.188514 29.589299 1.854067 2.637423 -26.785706 1.717730 -8.251066 -23.479511 0.000000 0.000000 0.000000 29.623215 16.021127 1.007459 -1.979884 -8.824109 25.246687 -1.350722 -25.530238 -42.381978 -2.061406 -8.992832 25.772958 2.173401 2.694467 5.166532 0.326414 3.742820 -3.814912 -1.277357 1.719969 -6.761038 8.465503 16.819423 -1.753920 -4.158884 22.481450 9.442937 -1.264715 11.170848 4.532987 0.000000 0.000000 0.000000 3.145972 10.315339 -37.343561 20.048558 -30.700770 5.556119 3.756387 14.300063 33.848972 0.000000 0.000000 0.000000 -7.125000 0.000000 0.000000 -15.786883 -2.813136 -17.196149 0.000000 0.000000 0.000000 -5.680532 15.654204 48.606758 -17.444251 -27.439268 -4.290264 -10.954230 27.031966 53.656821 0.000000 0.000000 0.000000 7.125000 0.000000 0.000000 69.685860 75.506700 -55.112790
9.123665 15.139011 42.020916 -179.240125 -12.270199 -179.825404 0.000000 0.000000 0.000000 -24.698486 -26.486355 -1.558902 2.704232 10.200035 29.627033 1.875230 2.204029 -26.748657 1.658360 -8.114918 -23.063689 0.000000 0.000000 0.000000 29.777959 16.123463 1.009828 -1.964407 -8.791624 25.145564 -1.267631 -25.542272 -42.031889 -1.947768 -8.755643 25.034421 2.310421 2.758988 5.054141 0.368047 3.836564 -3.851581 -1.314728 1.759553 -6.725988 8.454672 16.838062 -1.507102 -4.218814 22.523272 9.252172 -1.308177 11.195064 4.443130 0.000000 0.000000 0.000000 3.188342 10.372528 -37.103587 20.415953 -31.140216 5.744910 -0.213546 15.013140 34.110906 0.000000 0.000000 0.000000 -7.125000 0.000000 0.000000 -17.917634 -2.704190 -19.714351 0.000000 0.000000 0.000000 -5.569180 15.530488 48.017448 -17.718451 -27.794365 -4.417633 -8.201919 23.051421 54.663554 0.000000 0.000000 0.000000 7.125000 0.000000 0.000000 74.307860 74.693958 -58.561302
9.127901 15.135870 42.020697 -179.196142 -12.055554 -179.893649 0.000000 0.000000 0.000000 -24.755196 -26.652508 -1.397251 2.718705 10.225127 29.708781 1.893267 2.529326 -27.009689 1.658264 -8.113493 -23.060094 0.000000 0.000000 0.000000 29.841750 16.134869 1.112203 -1.946781 -8.754321 25.029794 -1.157113 -25.626628 -41.639181 -1.965978 -8.792154 25.149147 2.303725 2.809483 5.129708 0.457926 3.910284 -3.873201 -1.230072 1.796116 -6.797043 8.460215 16.845288 -1.324312 -4.369898 22.557291 9.230086 -1.363960 11.207435 4.427757 0.000000 0.000000 0.000000 3.066258 10.471339 -37.330620 20.407396 -31.129949 5.740536 0.493940 14.958999 33.401078 0.000000 0.000000 0.000000 -7.125000 0.000000 0.000000 -17.525881 -2.093162 -19.064884 0.000000 0.000000 0.000000 -5.701377 15.751474 48.138823 -17.659881 -27.718072 -4.390672 -8.779367 24.370750 54.481306 0.000000 0.000000 0.000000 7.125000 0.000000 0.000000 73.410452 74.848889 -57.921763
